<?xml version="1.0" encoding="UTF-8" standalone="no"?><!DOCTYPE svg PUBLIC "-//W3C//DTD SVG 1.1//EN" "http://www.w3.org/Graphics/SVG/1.1/DTD/svg11.dtd"><svg width="100%" height="100%" viewBox="0 0 130 49" version="1.1" xmlns="http://www.w3.org/2000/svg" xmlns:xlink="http://www.w3.org/1999/xlink" xml:space="preserve" xmlns:serif="http://www.serif.com/" style="fill-rule:evenodd;clip-rule:evenodd;stroke-linejoin:round;stroke-miterlimit:2;"><g><path d="M13.913,47.587l11.088,0l9.792,-31.968l0.144,0l9.576,31.968l11.088,0l13.824,-47.376l-11.232,0l-8.856,31.608l-0.144,0l-8.856,-31.608l-11.232,0l-8.784,31.536l-0.144,0l-8.928,-31.536l-11.16,0l13.824,47.376Z" style="fill:#f4f4f4;"/><path d="M98.657,37.363l-22.392,0l0,-37.152l-10.872,0l0,47.376l33.264,0l0,-10.224Z" style="fill:#f4f4f4;"/><path d="M105.497,28.507l22.968,0l0,-9.648l-22.968,0l0,-8.64l23.616,0l0,-10.008l-34.488,0l0,47.376l10.872,0l0,-19.08Z" style="fill:#f4f4f4;"/><path d="M113.993,41.467c0,3.816 3.024,6.912 6.696,6.912c3.672,0 6.768,-3.096 6.768,-6.912c0,-3.744 -3.024,-6.84 -6.768,-6.84c-3.744,0 -6.696,3.096 -6.696,6.84Z" style="fill:#f4f4f4;"/></g></svg>